<?xml version="1.0" standalone="no"?>
<!DOCTYPE svg PUBLIC "-//W3C//DTD SVG 20010904//EN"
 "http://www.w3.org/TR/2001/REC-SVG-20010904/DTD/svg10.dtd">
<svg version="1.0" xmlns="http://www.w3.org/2000/svg"
 width="840.000000pt" height="859.000000pt" viewBox="0 0 840.000000 859.000000"
 preserveAspectRatio="xMidYMid meet">
 
<g transform="translate(0.000000,859.000000) scale(0.100000,-0.100000)"
fill="#41befcb3" stroke="none">
<path d="M3926 7473 c-10 -3 -34 -19 -52 -35 -43 -39 -51 -91 -30 -179 16 -69
41 -192 61 -304 31 -168 45 -241 51 -255 3 -8 12 -51 20 -95 8 -44 23 -123 33
-175 10 -52 26 -135 36 -185 9 -49 18 -92 20 -95 2 -4 9 -38 15 -76 6 -38 15
-89 20 -114 19 -81 53 -255 88 -442 l18 -98 -25 0 c-14 0 -57 5 -96 11 -38 5
-135 16 -215 24 -207 20 -342 34 -445 46 -49 5 -155 16 -235 24 -80 8 -185 19
-235 24 -88 10 -162 18 -440 46 -77 8 -180 19 -230 24 -86 10 -168 18 -397 41
-57 6 -161 17 -233 25 -71 8 -177 19 -235 25 -58 5 -145 14 -195 19 -149 17
-292 32 -440 46 -139 14 -212 22 -435 47 -144 16 -242 16 -248 0 -2 -7 -9 -12
-16 -12 -7 0 -22 -18 -34 -39 l-22 -39 2 -1420 3 -1421 34 -35 c26 -27 46 -37
85 -43 l51 -8 5 -45 c8 -70 50 -114 115 -121 29 -4 228 11 310 22 39 6 138 17
220 24 150 15 255 26 435 45 52 6 160 17 240 25 139 14 238 24 435 46 50 5
137 14 195 19 58 6 164 17 235 25 144 16 265 29 490 50 83 8 166 17 185 20 19
3 100 12 180 20 80 8 215 21 300 29 85 9 169 18 186 21 17 3 103 12 190 20 88
8 176 17 198 21 l38 7 -7 -44 c-3 -24 -13 -71 -20 -104 -7 -33 -22 -103 -33
-155 -11 -52 -26 -120 -32 -150 -7 -30 -18 -84 -25 -120 -14 -72 -30 -145 -50
-235 -8 -33 -17 -76 -20 -95 -3 -19 -13 -64 -21 -100 -7 -36 -23 -110 -35
-165 -31 -154 -46 -222 -69 -327 -23 -101 -21 -142 8 -186 21 -32 64 -52 112
-52 l40 0 0 -48 c0 -42 5 -54 35 -85 40 -41 71 -52 116 -43 37 7 61 23 339
222 69 50 154 110 190 135 36 24 67 46 70 49 3 3 25 19 50 35 25 16 47 32 50
35 3 3 25 19 50 35 24 17 131 92 237 168 106 75 198 137 203 137 6 0 10 3 10
8 0 4 25 23 55 42 30 19 54 38 55 43 0 4 5 7 11 7 6 0 24 10 39 23 15 12 36
28 46 35 10 7 78 54 149 104 72 50 153 107 180 126 28 20 83 59 122 89 40 29
75 53 79 53 3 0 25 16 48 35 24 19 46 35 50 35 4 0 28 17 55 38 26 20 57 43
67 50 34 23 210 145 331 230 65 45 127 88 137 95 10 6 41 29 67 50 27 20 51
37 55 37 4 0 26 16 50 35 23 19 47 35 53 35 5 0 14 6 18 13 4 6 33 29 63 49
30 20 80 54 110 76 75 53 311 219 334 234 10 7 31 23 46 35 15 13 33 23 39 23
6 0 11 3 11 8 1 4 25 23 55 42 30 19 55 38 55 43 0 4 5 7 10 7 6 0 46 26 90
57 122 89 300 215 350 248 25 16 47 32 50 35 3 3 23 17 46 33 123 83 122 180
-3 272 -36 26 -77 67 -92 91 -22 37 -75 82 -196 170 -81 58 -133 96 -150 110
-46 36 -488 360 -504 369 -9 6 -23 16 -31 23 -8 7 -40 30 -70 52 -67 48 -63
46 -269 197 -91 67 -175 129 -186 137 -11 9 -45 34 -75 56 -30 22 -64 47 -75
56 -18 14 -311 229 -380 279 -15 11 -49 37 -76 58 -27 20 -51 37 -54 37 -3 0
-13 7 -22 16 -10 9 -128 96 -263 194 -135 98 -252 184 -261 192 -9 7 -23 18
-32 23 -17 11 -467 342 -505 372 -13 10 -29 23 -35 28 -7 6 -32 23 -57 40 -25
16 -49 36 -53 42 -4 7 -12 13 -16 13 -4 0 -84 57 -177 126 -93 69 -179 133
-192 142 -13 9 -32 24 -42 32 -11 8 -52 39 -92 68 -40 30 -131 97 -203 149
-162 119 -189 131 -249 116z m403 -557 c86 -63 164 -121 174 -130 9 -9 19 -16
22 -16 3 0 27 -17 54 -37 26 -21 57 -44 67 -51 46 -31 371 -272 387 -286 9 -9
19 -16 22 -16 3 0 29 -18 58 -40 29 -22 60 -46 69 -53 40 -29 377 -276 438
-322 38 -27 78 -57 90 -65 13 -8 35 -24 49 -36 14 -12 125 -93 246 -182 121
-88 228 -167 238 -176 9 -9 20 -16 23 -16 3 0 28 -17 54 -37 26 -21 58 -45 70
-53 12 -8 28 -20 34 -25 6 -6 88 -66 181 -134 94 -68 198 -145 232 -170 34
-25 71 -53 83 -61 13 -8 28 -20 34 -25 6 -6 88 -66 181 -134 94 -69 198 -145
231 -170 34 -25 70 -52 80 -59 11 -7 98 -72 194 -143 96 -72 182 -135 190
-140 13 -8 11 -12 -10 -29 -55 -46 -130 -100 -136 -100 -4 0 -26 -16 -50 -35
-23 -19 -45 -35 -47 -35 -3 0 -74 -49 -159 -109 -84 -60 -175 -125 -201 -143
-26 -18 -70 -49 -97 -68 -27 -19 -72 -51 -100 -70 -28 -19 -57 -40 -63 -45 -7
-6 -37 -27 -67 -47 -30 -20 -117 -81 -192 -135 -76 -54 -183 -129 -239 -168
-55 -38 -106 -74 -112 -80 -7 -5 -32 -23 -57 -40 -25 -16 -47 -32 -50 -35 -3
-3 -25 -19 -50 -35 -24 -17 -139 -97 -255 -180 -116 -82 -231 -163 -255 -180
-25 -16 -47 -32 -50 -35 -3 -3 -25 -19 -50 -35 -25 -17 -50 -34 -57 -40 -6 -5
-35 -26 -63 -45 -28 -19 -73 -51 -100 -70 -27 -19 -119 -84 -205 -145 -86 -60
-178 -126 -205 -145 -27 -19 -72 -51 -100 -70 -28 -19 -73 -51 -100 -70 -27
-19 -71 -50 -97 -68 -26 -18 -117 -83 -201 -143 -85 -60 -156 -109 -159 -109
-2 0 -23 -15 -46 -33 -43 -33 -82 -57 -93 -57 -3 0 -3 8 1 18 4 9 13 49 20 87
24 125 46 229 55 265 8 32 18 75 55 260 16 77 37 180 65 310 24 113 57 270 75
360 7 36 23 108 35 160 26 114 37 230 22 230 -6 0 -14 9 -17 20 -16 52 -111
64 -300 39 -44 -5 -145 -16 -225 -24 -80 -8 -185 -19 -235 -24 -100 -11 -229
-25 -440 -46 -77 -7 -180 -18 -230 -24 -103 -12 -234 -25 -450 -46 -82 -8
-167 -17 -188 -21 -36 -6 -99 -12 -482 -48 -88 -8 -174 -18 -191 -21 -18 -3
-99 -12 -180 -20 -228 -22 -350 -34 -449 -46 -49 -6 -153 -17 -230 -24 -77 -8
-185 -19 -240 -25 -83 -8 -169 -17 -320 -33 -20 -2 -20 5 -23 1236 l-2 1237
32 0 c18 0 65 -5 103 -11 39 -5 138 -16 220 -24 83 -8 191 -19 240 -24 187
-21 294 -32 435 -46 80 -8 186 -19 235 -24 100 -11 229 -25 440 -46 77 -7 181
-18 230 -24 104 -12 239 -26 450 -46 83 -8 164 -17 182 -20 17 -3 100 -12 185
-20 259 -24 451 -44 493 -50 22 -3 105 -12 185 -20 210 -21 343 -34 445 -46
203 -24 230 -23 270 1 65 40 78 96 51 220 -8 36 -22 101 -30 145 -9 44 -23
114 -32 155 -15 75 -34 175 -59 305 -7 39 -23 120 -35 180 -12 61 -28 143 -35
184 -8 40 -17 81 -20 90 -4 15 -23 109 -50 256 -22 125 -45 239 -55 276 -11
42 -13 59 -4 59 3 0 77 -51 163 -114z"/>
</g>
</svg>
