<svg width="49" height="43" viewBox="0 0 49 43" fill="none" xmlns="http://www.w3.org/2000/svg">
<path d="M37.0914 17.5215V39.2578H4.68399V3.74221H29.8694C30.7699 2.38371 32.0479 1.24756 33.5842 0.439804H2.80103C2.30201 0.439821 1.82343 0.613791 1.47056 0.923447C1.1177 1.2331 0.919454 1.65308 0.919434 2.091V40.909C0.919454 41.3469 1.1177 41.7669 1.47056 42.0766C1.82343 42.3862 2.30201 42.5602 2.80103 42.5602H38.973C39.2202 42.5603 39.4649 42.5177 39.6932 42.4347C39.9216 42.3518 40.129 42.2301 40.3038 42.0768C40.4785 41.9234 40.6171 41.7414 40.7116 41.541C40.8062 41.3406 40.8548 41.1259 40.8546 40.909V17.5333C39.6095 17.7263 38.335 17.7223 37.0914 17.5215V17.5215Z" fill="#2D3E50"/>
<path d="M20.8877 18.2417C21.7506 18.2415 22.5865 17.978 23.2524 17.4964C23.9183 17.0148 24.3726 16.345 24.5377 15.6017L25.1053 13.0341C25.1806 12.5481 25.1365 12.0536 24.976 11.5838C24.8155 11.114 24.5423 10.6798 24.1747 10.3103C23.8071 9.94087 23.3537 9.64471 22.8449 9.44177C22.3361 9.23882 21.7837 9.13378 21.2248 9.1337H20.5505C19.9916 9.13378 19.4392 9.23882 18.9304 9.44177C18.4216 9.64472 17.9682 9.94087 17.6006 10.3103C17.233 10.6798 16.9598 11.114 16.7993 11.5838C16.6388 12.0536 16.5947 12.5481 16.67 13.0341L17.2376 15.6017C17.4027 16.345 17.8571 17.0148 18.5229 17.4964C19.1888 17.978 20.0248 18.2415 20.8877 18.2417Z" fill="#1D75B8"/>
<path d="M28.653 20.4734L24.6901 19.2383L20.8875 22.5753L17.0849 19.2383L13.1219 20.4734C12.9439 20.5289 12.7851 20.6234 12.6607 20.7481C12.5362 20.8728 12.4503 21.0233 12.411 21.1854L11.0571 26.777H30.7178L29.3639 21.1854C29.3246 21.0233 29.2387 20.8728 29.1142 20.7481C28.9898 20.6234 28.831 20.5289 28.653 20.4734Z" fill="#1D75B8"/>
<path d="M9.59863 32.8198C9.59882 33.0972 9.72441 33.3633 9.94784 33.5595C10.1713 33.7558 10.4743 33.8663 10.7905 33.8668H30.9834C31.2995 33.8663 31.6024 33.7558 31.8257 33.5595C32.049 33.3632 32.1744 33.0971 32.1744 32.8198C32.1744 32.5424 32.049 32.2763 31.8257 32.08C31.6024 31.8837 31.2995 31.7732 30.9834 31.7727H10.7905C10.4743 31.7732 10.1713 31.8837 9.94785 32.08C9.72442 32.2763 9.59883 32.5423 9.59863 32.8198Z" fill="#1D75B8"/>
<path d="M39.0095 0.439804C37.2155 0.439844 35.4618 0.906721 33.9701 1.7814C32.4785 2.65607 31.3159 3.89926 30.6294 5.35376C29.9429 6.80826 29.7633 8.40874 30.1133 9.95282C30.4633 11.4969 31.3272 12.9152 32.5957 14.0284C33.8643 15.1417 35.4805 15.8998 37.24 16.2069C38.9996 16.5141 40.8234 16.3565 42.4808 15.754C44.1383 15.1515 45.5549 14.1313 46.5517 12.8223C47.5484 11.5133 48.0804 9.97437 48.0804 8.40004C48.08 6.28897 47.1242 4.26447 45.4231 2.77171C43.7221 1.27896 41.4151 0.440176 39.0095 0.439804ZM43.4331 7.16874L38.7276 11.298C38.6035 11.4077 38.4559 11.4948 38.2933 11.5542C38.1307 11.6136 37.9563 11.6441 37.7801 11.6441C37.604 11.6441 37.4296 11.6136 37.267 11.5542C37.1043 11.4948 36.9567 11.4077 36.8326 11.298L34.5526 9.29719C34.4273 9.1895 34.328 9.06074 34.2607 8.91861C34.1935 8.77649 34.1595 8.62391 34.161 8.47001C34.1613 8.23766 34.2402 8.01062 34.3877 7.81762C34.5351 7.62462 34.7445 7.47434 34.9893 7.38579C35.2341 7.29723 35.5033 7.27439 35.7629 7.32015C36.0225 7.3659 36.2608 7.4782 36.4476 7.64283L37.785 8.81611L41.5517 5.5107C41.6759 5.40114 41.8236 5.3142 41.9863 5.25488C42.1489 5.19555 42.3233 5.16501 42.4994 5.16501C42.6756 5.16501 42.85 5.19555 43.0126 5.25488C43.1753 5.3142 43.323 5.40114 43.4472 5.5107C43.5725 5.61839 43.6717 5.74715 43.739 5.88928C43.8063 6.0314 43.8402 6.18398 43.8388 6.33787C43.8414 6.49359 43.8066 6.64804 43.7367 6.79119C43.6668 6.93434 43.5634 7.06298 43.4331 7.16874Z" fill="#1D75B8"/>
</svg>
