<svg width="94" height="99" viewBox="0 0 94 99" fill="none" xmlns="http://www.w3.org/2000/svg">
<path d="M67.2663 60.6276V36.2736C66.1383 35.5212 61.7391 32.9076 56.7384 32.9076C51.7752 32.9076 48.504 35.4816 47.6768 36.234V60.4296C49.256 59.2812 52.3768 57.4992 56.7384 57.4992C61.4007 57.4992 65.4239 59.5188 67.2663 60.6276Z" fill="#1D75B8" fill-opacity="0.7"/>
<path d="M46.3232 60.4296V36.234C45.496 35.5212 42.1872 32.9076 37.2616 32.9076C32.2608 32.9076 27.8616 35.5212 26.7336 36.2736V60.6276C28.576 59.5188 32.6368 57.4992 37.2616 57.4992C41.6232 57.4992 44.744 59.2812 46.3232 60.4296Z" fill="#1D75B8" fill-opacity="0.7"/>
<path d="M68.62 39.204V61.8552C68.62 62.0532 68.5448 62.2116 68.432 62.37C68.2064 62.6472 67.8304 62.6472 67.5672 62.4888C67.5296 62.4492 62.5288 58.9248 56.7384 58.9248C50.9856 58.9248 47.4888 62.37 47.4512 62.4096C47.4136 62.4492 47.4136 62.4492 47.376 62.4888C47.3384 62.5284 47.3008 62.5284 47.2632 62.5284C47.2256 62.5284 47.188 62.568 47.188 62.568H47.1504C47.1128 62.568 47.0752 62.568 47.0376 62.568C47 62.568 46.9624 62.568 46.9248 62.568H46.8872C46.8496 62.568 46.812 62.568 46.812 62.5284C46.7744 62.5284 46.7368 62.4888 46.6992 62.4888C46.6616 62.4888 46.6616 62.4492 46.624 62.4096C46.5864 62.37 43.052 58.9248 37.3368 58.9248C31.5464 58.9248 26.5456 62.4492 26.508 62.4888C26.2448 62.6868 25.8688 62.6472 25.6432 62.37C25.5304 62.2512 25.4552 62.0532 25.4552 61.8552V39.204H23.5752V64.5876H43.6536C44.2552 64.5876 44.744 64.9044 45.0448 65.34C45.3456 65.7756 45.7968 66.0528 46.3232 66.0528H47.8648C48.3536 66.0528 48.8424 65.7756 49.1432 65.34C49.444 64.8648 49.9704 64.5876 50.5344 64.5876H70.6128V39.204H68.62Z" fill="black" fill-opacity="0.7"/>
</svg>
