<?xml version="1.0" encoding="UTF-8"?>
<svg xmlns="http://www.w3.org/2000/svg" xmlns:xlink="http://www.w3.org/1999/xlink" width="49px" height="43px" viewBox="0 0 49 43" version="1.1">
<g id="surface1">
<path style=" stroke:none;fill-rule:nonzero;fill:rgb(11.372549%,45.882353%,72.156863%);fill-opacity:0.701961;" d="M 45.429688 35.953125 L 45.429688 4.363281 C 44.257812 3.386719 39.691406 -0.00390625 34.503906 -0.00390625 C 29.351562 -0.00390625 25.957031 3.335938 25.097656 4.3125 L 25.097656 35.695312 C 26.738281 34.207031 29.976562 31.894531 34.503906 31.894531 C 39.339844 31.894531 43.515625 34.515625 45.429688 35.953125 Z M 45.429688 35.953125 "/>
<path style=" stroke:none;fill-rule:nonzero;fill:rgb(11.372549%,45.882353%,72.156863%);fill-opacity:0.701961;" d="M 23.695312 35.695312 L 23.695312 4.3125 C 22.835938 3.386719 19.402344 -0.00390625 14.289062 -0.00390625 C 9.097656 -0.00390625 4.535156 3.386719 3.363281 4.363281 L 3.363281 35.953125 C 5.273438 34.515625 9.488281 31.894531 14.289062 31.894531 C 18.816406 31.894531 22.054688 34.207031 23.695312 35.695312 Z M 23.695312 35.695312 "/>
<path style=" stroke:none;fill-rule:nonzero;fill:rgb(0%,0%,0%);fill-opacity:0.701961;" d="M 46.835938 8.164062 L 46.835938 37.546875 C 46.835938 37.800781 46.757812 38.007812 46.640625 38.214844 C 46.40625 38.574219 46.015625 38.574219 45.742188 38.367188 C 45.703125 38.316406 40.511719 33.746094 34.503906 33.746094 C 28.53125 33.746094 24.902344 38.214844 24.863281 38.265625 C 24.824219 38.316406 24.824219 38.316406 24.785156 38.367188 C 24.746094 38.417969 24.707031 38.417969 24.667969 38.417969 C 24.628906 38.417969 24.589844 38.46875 24.589844 38.46875 L 24.550781 38.46875 C 24.511719 38.46875 24.472656 38.46875 24.433594 38.46875 C 24.394531 38.46875 24.355469 38.46875 24.316406 38.46875 L 24.277344 38.46875 C 24.238281 38.46875 24.199219 38.46875 24.199219 38.417969 C 24.160156 38.417969 24.125 38.367188 24.085938 38.367188 C 24.046875 38.367188 24.046875 38.316406 24.007812 38.265625 C 23.96875 38.214844 20.300781 33.746094 14.367188 33.746094 C 8.359375 33.746094 3.167969 38.316406 3.128906 38.367188 C 2.855469 38.625 2.464844 38.574219 2.230469 38.214844 C 2.113281 38.058594 2.035156 37.800781 2.035156 37.546875 L 2.035156 8.164062 L 0.0859375 8.164062 L 0.0859375 41.089844 L 20.921875 41.089844 C 21.546875 41.089844 22.054688 41.5 22.367188 42.066406 C 22.679688 42.632812 23.148438 42.992188 23.695312 42.992188 L 25.292969 42.992188 C 25.800781 42.992188 26.308594 42.632812 26.621094 42.066406 C 26.933594 41.449219 27.480469 41.089844 28.0625 41.089844 L 48.902344 41.089844 L 48.902344 8.164062 Z M 46.835938 8.164062 "/>
</g>
</svg>
