<svg width="60" height="63" viewBox="0 0 60 63" fill="none" xmlns="http://www.w3.org/2000/svg">
<g id="TU-Logo1 1">
<g id="TU Logo1">
<g id="Lines">
<path id="L3" d="M16.98 8.8452C13.884 10.7226 10.26 12.8898 8.94004 13.671L6.54004 15.0822V24.57V34.0452L18.108 41.0886C24.468 44.9568 29.712 48.132 29.76 48.132C29.808 48.132 31.488 47.1114 33.492 45.8766L37.14 43.6212L37.176 39.627C37.2 36.0612 37.188 35.6328 37.02 35.7084C36.912 35.7462 35.28 36.7164 33.372 37.863L29.916 39.942L21.588 34.7886L13.26 29.6226V24.4314V19.2402L21.24 14.4774C25.632 11.8566 29.232 9.6642 29.244 9.6138C29.28 9.513 23.016 5.5062 22.752 5.4558C22.68 5.4432 20.088 6.9678 16.98 8.8452Z" fill="url(#paint0_linear_81_790)"/>
<path id="L2" d="M26.256 13.0788L14.52 20.097L14.556 24.6204L14.58 29.1438L17.82 31.0968C19.608 32.1678 21.168 33.075 21.288 33.1128C21.504 33.1758 21.516 33.0498 21.468 28.7154L21.42 24.255L29.52 19.3788C33.972 16.695 37.74 14.4396 37.884 14.3514C38.112 14.2254 38.568 14.4648 42.228 16.7076L46.32 19.215V28.8918C46.32 34.2216 46.368 38.556 46.416 38.5308C46.464 38.5056 48.012 37.6362 49.836 36.603L53.16 34.713V24.9984V15.2838L45.612 10.6596C41.448 8.127 38.04 6.048 38.016 6.048C37.992 6.048 32.7 9.2106 26.256 13.0788Z" fill="url(#paint1_linear_81_790)"/>
<path id="L1" d="M34.812 17.892C33.072 18.9378 31.62 19.8072 31.596 19.8324C31.572 19.8576 33.06 20.853 34.908 22.05L38.28 24.2172V34.3728V44.541L34.2 47.0862L30.12 49.6188L22.056 44.8308C17.628 42.1974 13.92 40.0176 13.836 39.9798C13.704 39.9294 13.68 40.6854 13.704 44.1126L13.74 48.3084L21.54 52.9452C25.836 55.4904 29.484 57.6576 29.652 57.7584C29.952 57.9474 30.108 57.8592 37.512 53.1972L45.06 48.4344L45.096 34.3854L45.12 20.3238L41.664 18.1692C39.756 16.9722 38.148 16.002 38.088 16.002C38.028 16.002 36.552 16.8588 34.812 17.892Z" fill="url(#paint2_linear_81_790)"/>
</g>
<g id="Cube">
<path id="Vector" d="M26.4122 22.7556C24.4802 23.8896 22.8602 24.822 22.8002 24.822C22.7282 24.822 22.6802 26.5608 22.6802 29.3958V33.9822L26.2082 36.1368C28.1522 37.3338 29.7842 38.304 29.8442 38.304C29.8922 38.2914 31.5362 37.3086 33.4802 36.1116L37.0202 33.9444V29.4966V25.0488L34.8602 23.7258C33.6722 22.995 32.0762 22.0122 31.3082 21.546L29.9042 20.6892L26.4122 22.7556Z" fill="#3954A5"/>
<path id="Line 1" d="M22.8931 24.9122L29.8531 29.3222" stroke="black" stroke-opacity="0.2" stroke-width="3"/>
<path id="Line 3" d="M29.8203 29.232V38.304" stroke="black" stroke-opacity="0.2" stroke-width="3"/>
<path id="Line 2" d="M36.9281 25.1129L29.8481 29.2709" stroke="black" stroke-opacity="0.2" stroke-width="3"/>
</g>
<path id="Vector 1" d="M38.2798 24.192L45.1198 20.349" stroke="black" stroke-opacity="0.2" stroke-width="3"/>
<path id="Vector 2" d="M46.3198 19.215L53.1598 15.309" stroke="black" stroke-opacity="0.2" stroke-width="3"/>
<path id="Vector 3" d="M29.8798 39.942L29.7598 48.132" stroke="black" stroke-opacity="0.2" stroke-width="3"/>
<path id="Vector 4" d="M29.7598 49.455V57.771" stroke="black" stroke-opacity="0.2" stroke-width="3"/>
<path id="Vector 5" d="M21.36 24.255L14.52 20.16" stroke="black" stroke-opacity="0.2" stroke-width="3"/>
<path id="Vector 6" d="M13.2591 19.53L6.59912 15.561" stroke="black" stroke-opacity="0.2" stroke-width="3"/>
</g>
</g>
<defs>
<linearGradient id="paint0_linear_81_790" x1="30.36" y1="57.141" x2="21.9134" y2="5.5435" gradientUnits="userSpaceOnUse">
<stop stop-color="#BECEE8"/>
<stop offset="1" stop-color="#4968B1"/>
</linearGradient>
<linearGradient id="paint1_linear_81_790" x1="51.84" y1="34.839" x2="6.20677" y2="20.9479" gradientUnits="userSpaceOnUse">
<stop stop-color="#4968B1"/>
<stop offset="1" stop-color="#BECEE8"/>
</linearGradient>
<linearGradient id="paint2_linear_81_790" x1="13.68" y1="48.132" x2="39.5099" y2="17.2306" gradientUnits="userSpaceOnUse">
<stop stop-color="#3954A5"/>
<stop offset="1" stop-color="#BECEE8"/>
</linearGradient>
</defs>
</svg>
